<?xml version="1.0" encoding="UTF-8"?><!DOCTYPE svg PUBLIC "-//W3C//DTD SVG 1.1//EN" "http://www.w3.org/Graphics/SVG/1.1/DTD/svg11.dtd"><svg xmlns="http://www.w3.org/2000/svg" xmlns:xlink="http://www.w3.org/1999/xlink"><symbol id="arrow-next" viewBox="0 0 33.68 66.688">
  <path d="M1606.35,477.646l-0.7.706,33,33,0.7-.707Zm0,66.706-0.7-.707,33-33,0.7,0.707Z" transform="translate(-1605.66 -477.656)"/>
</symbol><symbol id="arrow-prev" viewBox="0 0 33.688 66.688">
  <path d="M311.646,477.646l0.707,0.706-33,33-0.707-.707Zm0,66.706,0.707-.707-33-33-0.707.707Z" transform="translate(-278.656 -477.656)"/>
</symbol><symbol id="arrow-up" viewBox="0 0 14 14">
	<path d="M6.5,0.9h1V14h-1V0.9z"/><polygon points="12.8,5.6 12.1,6.3 7,1.4 1.9,6.3 1.2,5.6 7,0  "/>
</symbol><symbol id="cancel" viewBox="0 0 21.9 21.9">
  <path d="M14.1,11.3c-0.2-0.2-0.2-0.5,0-0.7l7.5-7.5c0.2-0.2,0.3-0.5,0.3-0.7s-0.1-0.5-0.3-0.7l-1.4-1.4C20,0.1,19.7,0,19.5,0  c-0.3,0-0.5,0.1-0.7,0.3l-7.5,7.5c-0.2,0.2-0.5,0.2-0.7,0L3.1,0.3C2.9,0.1,2.6,0,2.4,0S1.9,0.1,1.7,0.3L0.3,1.7C0.1,1.9,0,2.2,0,2.4  s0.1,0.5,0.3,0.7l7.5,7.5c0.2,0.2,0.2,0.5,0,0.7l-7.5,7.5C0.1,19,0,19.3,0,19.5s0.1,0.5,0.3,0.7l1.4,1.4c0.2,0.2,0.5,0.3,0.7,0.3  s0.5-0.1,0.7-0.3l7.5-7.5c0.2-0.2,0.5-0.2,0.7,0l7.5,7.5c0.2,0.2,0.5,0.3,0.7,0.3s0.5-0.1,0.7-0.3l1.4-1.4c0.2-0.2,0.3-0.5,0.3-0.7  s-0.1-0.5-0.3-0.7L14.1,11.3z"/>
</symbol><symbol id="cart" viewBox="0 0 50.613 50.613">
	<g>
		<path d="M49.569,11.145H20.055c-0.961,0-1.508,0.743-1.223,1.661l4.669,13.677c0.23,0.738,1.044,1.336,1.817,1.336h19.35
			c0.773,0,1.586-0.598,1.814-1.336l4.069-14C50.783,11.744,50.344,11.145,49.569,11.145z"/>
		<circle cx="22.724" cy="43.575" r="4.415"/>
		<circle cx="41.406" cy="43.63" r="4.415"/>
		<path d="M46.707,32.312H20.886L10.549,2.568H2.5c-1.381,0-2.5,1.119-2.5,2.5s1.119,2.5,2.5,2.5h4.493L17.33,37.312h29.377
			c1.381,0,2.5-1.119,2.5-2.5S48.088,32.312,46.707,32.312z"/>
	</g>
</symbol><symbol id="check" viewBox="0 0 19.44 15.44">
  <path d="M1018.29,2474.71l1.42-1.42,6,6-1.42,1.42Zm6.42,5-1.42-1.42,13-13,1.42,1.42Z" transform="translate(-1018.28 -2465.28)"/>
</symbol><symbol id="cursor" viewBox="0 0 297 297">
<g>
	<path d="M294.077,251.199l-59.105-59.107l42.167-24.356c3.295-1.903,5.212-5.52,4.938-9.315c-0.274-3.796-2.692-7.101-6.226-8.51
		L87.82,74.905c-3.686-1.472-7.895-0.605-10.702,2.201c-2.807,2.808-3.674,7.016-2.203,10.702l74.994,188.053
		c1.41,3.534,4.715,5.953,8.511,6.227c3.796,0.276,7.414-1.642,9.316-4.938l24.354-42.167l59.101,59.107
		c1.862,1.863,4.39,2.91,7.023,2.91c2.635,0,5.161-1.047,7.023-2.91l28.841-28.845C297.956,261.366,297.956,255.078,294.077,251.199
		z"/>
	<path d="M43.61,29.552c-3.879-3.876-10.166-3.877-14.047,0c-3.878,3.879-3.878,10.168,0,14.047l22.069,22.069
		c1.939,1.939,4.48,2.909,7.023,2.909c2.541,0,5.083-0.97,7.022-2.909c3.879-3.879,3.879-10.167,0-14.046L43.61,29.552z"/>
	<path d="M51.089,98.215c0-5.484-4.447-9.932-9.933-9.932H9.946c-5.485,0-9.933,4.447-9.933,9.932c0,5.485,4.447,9.933,9.933,9.933
		h31.21C46.642,108.147,51.089,103.7,51.089,98.215z"/>
	<path d="M47.063,128.869l-22.072,22.071c-3.878,3.879-3.878,10.168,0,14.046c1.94,1.939,4.482,2.909,7.023,2.909
		c2.541,0,5.084-0.97,7.023-2.909l22.071-22.07c3.879-3.879,3.879-10.168,0-14.047C57.23,124.993,50.944,124.992,47.063,128.869z"/>
	<path d="M98.222,51.078c5.485,0,9.933-4.447,9.933-9.933V9.932c0-5.485-4.447-9.932-9.933-9.932c-5.484,0-9.932,4.446-9.932,9.932
		v31.214C88.29,46.631,92.737,51.078,98.222,51.078z"/>
	<path d="M135.894,64.006c2.543,0,5.084-0.97,7.023-2.909l22.068-22.069c3.879-3.879,3.879-10.168,0-14.047
		c-3.879-3.877-10.168-3.877-14.046,0l-22.068,22.07c-3.879,3.879-3.879,10.168,0,14.046
		C130.811,63.036,133.352,64.006,135.894,64.006z"/>
</g>
</symbol><symbol id="delivery" viewBox="0 0 31.5 36">
<path class="st0" d="M31.5,9.5c0,0,0-0.1,0-0.1c0-0.1-0.1-0.3-0.1-0.4c0,0,0,0,0,0c0,0,0,0,0,0c-0.1-0.1-0.2-0.2-0.3-0.3
	c0,0-0.1,0-0.1-0.1c0,0-0.1,0-0.1-0.1l-7.2-4.2c-0.2-0.2-0.3-0.3-0.6-0.3l-6.7-3.9c-0.4-0.2-0.9-0.2-1.3,0L0.6,8.5
	c0,0-0.1,0-0.1,0.1c0,0-0.1,0-0.1,0.1C0.2,8.9,0.1,9.1,0,9.4c0,0,0,0.1,0,0.1c0,0,0,0.1,0,0.1v16.7c0,0.4,0.2,0.9,0.6,1.1l14.5,8.4
	c0,0,0.1,0,0.1,0c0,0,0.1,0,0.1,0c0.1,0.1,0.3,0.1,0.4,0.1s0.3,0,0.4-0.1c0,0,0.1,0,0.1,0c0,0,0.1,0,0.1,0l14.5-8.4
	c0.4-0.2,0.6-0.6,0.6-1.1L31.5,9.5C31.5,9.6,31.5,9.6,31.5,9.5z M15.8,16.6l-5-2.9l12-6.9l5,2.9L15.8,16.6z M15.8,2.7l4.5,2.6
	l-12,6.9L3.7,9.6L15.8,2.7z M2.5,11.8l4.6,2.6v13.9l-4.6-2.6V11.8z M17,32.6v-8.2c0-0.7-0.6-1.3-1.3-1.3s-1.3,0.6-1.3,1.3v8.2
	l-4.9-2.8V15.9l4.9,2.8v1.8c0,0.7,0.6,1.3,1.3,1.3s1.3-0.6,1.3-1.3v-1.8l12-6.9v13.9L17,32.6z"/>
</symbol><symbol id="facebook" viewBox="0 0 10 17">
	<path d="M9.161,0.501 L7.002,0.498 C4.577,0.498 3.010,2.043 3.010,4.435 L3.010,6.251 L0.839,6.251 C0.652,6.251 0.500,6.397 0.500,6.577 L0.500,9.208 C0.500,9.388 0.652,9.534 0.839,9.534 L3.010,9.534 L3.010,16.171 C3.010,16.352 3.161,16.498 3.349,16.498 L6.181,16.498 C6.368,16.498 6.520,16.352 6.520,16.171 L6.520,9.534 L9.058,9.534 C9.245,9.534 9.397,9.388 9.397,9.208 L9.398,6.577 C9.398,6.490 9.362,6.408 9.299,6.346 C9.235,6.284 9.149,6.251 9.059,6.251 L6.520,6.251 L6.520,4.711 C6.520,3.973 6.704,3.597 7.706,3.597 L9.160,3.596 C9.348,3.596 9.500,3.450 9.500,3.270 L9.500,0.827 C9.500,0.648 9.348,0.501 9.161,0.501 Z"/>
</symbol><symbol id="find" viewBox="0 0 30.239 30.239">
<g>
	<path d="M20.194,3.46c-4.613-4.613-12.121-4.613-16.734,0c-4.612,4.614-4.612,12.121,0,16.735
		c4.108,4.107,10.506,4.547,15.116,1.34c0.097,0.459,0.319,0.897,0.676,1.254l6.718,6.718c0.979,0.977,2.561,0.977,3.535,0
		c0.978-0.978,0.978-2.56,0-3.535l-6.718-6.72c-0.355-0.354-0.794-0.577-1.253-0.674C24.743,13.967,24.303,7.57,20.194,3.46z
		 M18.073,18.074c-3.444,3.444-9.049,3.444-12.492,0c-3.442-3.444-3.442-9.048,0-12.492c3.443-3.443,9.048-3.443,12.492,0
		C21.517,9.026,21.517,14.63,18.073,18.074z"/>
</g>
</symbol><symbol id="instagram" viewBox="0 0 16 16">
	<path d="M14.400,-0.000 L1.600,-0.000 C0.720,-0.000 -0.000,0.720 -0.000,1.600 L-0.000,14.400 C-0.000,15.280 0.720,16.000 1.600,16.000 L14.400,16.000 C15.280,16.000 16.000,15.280 16.000,14.400 L16.000,1.600 C16.000,0.720 15.280,-0.000 14.400,-0.000 ZM8.000,4.800 C9.760,4.800 11.200,6.240 11.200,8.000 C11.200,9.760 9.760,11.200 8.000,11.200 C6.240,11.200 4.800,9.760 4.800,8.000 C4.800,6.240 6.240,4.800 8.000,4.800 ZM2.000,14.400 C1.760,14.400 1.600,14.240 1.600,14.000 L1.600,7.200 L3.280,7.200 C3.200,7.440 3.200,7.760 3.200,8.000 C3.200,10.639 5.360,12.800 8.000,12.800 C10.640,12.800 12.800,10.639 12.800,8.000 C12.800,7.760 12.800,7.440 12.720,7.200 L14.400,7.200 L14.400,14.000 C14.400,14.240 14.240,14.400 14.000,14.400 L2.000,14.400 ZM14.400,3.600 C14.400,3.840 14.240,4.000 14.000,4.000 L12.400,4.000 C12.160,4.000 12.000,3.840 12.000,3.600 L12.000,2.000 C12.000,1.760 12.160,1.600 12.400,1.600 L14.000,1.600 C14.240,1.600 14.400,1.760 14.400,2.000 L14.400,3.600 Z"/>
	<path d="M14.400,-0.000 L1.600,-0.000 C0.720,-0.000 -0.000,0.720 -0.000,1.600 L-0.000,14.400 C-0.000,15.280 0.720,16.000 1.600,16.000 L14.400,16.000 C15.280,16.000 16.000,15.280 16.000,14.400 L16.000,1.600 C16.000,0.720 15.280,-0.000 14.400,-0.000 ZM8.000,4.800 C9.760,4.800 11.200,6.240 11.200,8.000 C11.200,9.760 9.760,11.200 8.000,11.200 C6.240,11.200 4.800,9.760 4.800,8.000 C4.800,6.240 6.240,4.800 8.000,4.800 ZM2.000,14.400 C1.760,14.400 1.600,14.240 1.600,14.000 L1.600,7.200 L3.280,7.200 C3.200,7.440 3.200,7.760 3.200,8.000 C3.200,10.639 5.360,12.800 8.000,12.800 C10.640,12.800 12.800,10.639 12.800,8.000 C12.800,7.760 12.800,7.440 12.720,7.200 L14.400,7.200 L14.400,14.000 C14.400,14.240 14.240,14.400 14.000,14.400 L2.000,14.400 ZM14.400,3.600 C14.400,3.840 14.240,4.000 14.000,4.000 L12.400,4.000 C12.160,4.000 12.000,3.840 12.000,3.600 L12.000,2.000 C12.000,1.760 12.160,1.600 12.400,1.600 L14.000,1.600 C14.240,1.600 14.400,1.760 14.400,2.000 L14.400,3.600 Z"/>
</symbol><symbol id="linkedin" viewBox="0 0 438.536 438.535">
<g>
	<g>
		<rect x="5.424" y="145.895" width="94.216" height="282.932"/>
		<path d="M408.842,171.739c-19.791-21.604-45.967-32.408-78.512-32.408c-11.991,0-22.891,1.475-32.695,4.427
			c-9.801,2.95-18.079,7.089-24.838,12.419c-6.755,5.33-12.135,10.278-16.129,14.844c-3.798,4.337-7.512,9.389-11.136,15.104
			v-40.232h-93.935l0.288,13.706c0.193,9.139,0.288,37.307,0.288,84.508c0,47.205-0.19,108.777-0.572,184.722h93.931V270.942
			c0-9.705,1.041-17.412,3.139-23.127c4-9.712,10.037-17.843,18.131-24.407c8.093-6.572,18.13-9.855,30.125-9.855
			c16.364,0,28.407,5.662,36.117,16.987c7.707,11.324,11.561,26.98,11.561,46.966V428.82h93.931V266.664
			C438.529,224.976,428.639,193.336,408.842,171.739z"/>
		<path d="M53.103,9.708c-15.796,0-28.595,4.619-38.4,13.848C4.899,32.787,0,44.441,0,58.529c0,13.891,4.758,25.505,14.275,34.829
			c9.514,9.325,22.078,13.99,37.685,13.99h0.571c15.99,0,28.887-4.661,38.688-13.99c9.801-9.324,14.606-20.934,14.417-34.829
			c-0.19-14.087-5.047-25.742-14.561-34.973C81.562,14.323,68.9,9.708,53.103,9.708z"/>
	</g>
</g>
<g>
</g>
<g>
</g>
<g>
</g>
<g>
</g>
<g>
</g>
<g>
</g>
<g>
</g>
<g>
</g>
<g>
</g>
<g>
</g>
<g>
</g>
<g>
</g>
<g>
</g>
<g>
</g>
<g>
</g>
</symbol><symbol id="location" viewBox="0 0 17 24">
  <path d="M307.51,912.463a8.569,8.569,0,0,0-12.02,0,9.487,9.487,0,0,0-.8,11.811L301.5,934l6.8-9.71A9.492,9.492,0,0,0,307.51,912.463Zm-5.932,8.933a3.068,3.068,0,1,1,3.1-3.068A3.089,3.089,0,0,1,301.578,921.4Z" transform="translate(-293 -910)"/>
</symbol><symbol id="mail" viewBox="0 0 17 13">
  <path d="M294.632,976.007q0.322,0.221,1.944,1.315t2.486,1.686l0.4,0.281c0.206,0.145.376,0.262,0.512,0.351s0.3,0.19.494,0.3a2.963,2.963,0,0,0,.545.249,1.558,1.558,0,0,0,.474.083h0.019a1.559,1.559,0,0,0,.475-0.083,2.963,2.963,0,0,0,.545-0.249q0.289-.167.494-0.3c0.136-.089.306-0.206,0.512-0.351s0.34-.238.4-0.281l4.44-3a4.451,4.451,0,0,0,1.157-1.136,2.4,2.4,0,0,0,.465-1.394,1.4,1.4,0,0,0-.451-1.044,1.487,1.487,0,0,0-1.067-.434H294.518a1.368,1.368,0,0,0-1.124.481,1.827,1.827,0,0,0-.394,1.2,2.126,2.126,0,0,0,.522,1.261A4.679,4.679,0,0,0,294.632,976.007ZM309.051,977q-3.111,2.049-4.724,3.186-0.54.387-.878,0.6a5.525,5.525,0,0,1-.9.443,2.792,2.792,0,0,1-1.043.226h-0.02a2.792,2.792,0,0,1-1.043-.226,5.583,5.583,0,0,1-.9-0.443q-0.336-.217-0.877-0.6-1.281-.915-4.715-3.186a4.994,4.994,0,0,1-.958-0.8v7.333a1.4,1.4,0,0,0,.446,1.043,1.478,1.478,0,0,0,1.072.434h13.964a1.479,1.479,0,0,0,1.072-.434,1.4,1.4,0,0,0,.446-1.043v-7.333A5.2,5.2,0,0,1,309.051,977Z" transform="translate(-293 -972)"/>
</symbol><symbol id="marker" viewBox="0 0 97.713 97.713">
<g>
	<path d="M48.855,0C29.021,0,12.883,16.138,12.883,35.974c0,5.174,1.059,10.114,3.146,14.684
		c8.994,19.681,26.238,40.46,31.31,46.359c0.38,0.441,0.934,0.695,1.517,0.695s1.137-0.254,1.517-0.695
		c5.07-5.898,22.314-26.676,31.311-46.359c2.088-4.57,3.146-9.51,3.146-14.684C84.828,16.138,68.69,0,48.855,0z M48.855,54.659
		c-10.303,0-18.686-8.383-18.686-18.686c0-10.304,8.383-18.687,18.686-18.687s18.686,8.383,18.686,18.687
		C67.542,46.276,59.159,54.659,48.855,54.659z"/>
</g>
</symbol><symbol id="odnoklassniki" viewBox="0 0 95.481 95.481">
	<g>
		<path d="M43.041,67.254c-7.402-0.772-14.076-2.595-19.79-7.064c-0.709-0.556-1.441-1.092-2.088-1.713
			c-2.501-2.402-2.753-5.153-0.774-7.988c1.693-2.426,4.535-3.075,7.489-1.682c0.572,0.27,1.117,0.607,1.639,0.969
			c10.649,7.317,25.278,7.519,35.967,0.329c1.059-0.812,2.191-1.474,3.503-1.812c2.551-0.655,4.93,0.282,6.299,2.514
			c1.564,2.549,1.544,5.037-0.383,7.016c-2.956,3.034-6.511,5.229-10.461,6.761c-3.735,1.448-7.826,2.177-11.875,2.661
			c0.611,0.665,0.899,0.992,1.281,1.376c5.498,5.524,11.02,11.025,16.5,16.566c1.867,1.888,2.257,4.229,1.229,6.425
			c-1.124,2.4-3.64,3.979-6.107,3.81c-1.563-0.108-2.782-0.886-3.865-1.977c-4.149-4.175-8.376-8.273-12.441-12.527
			c-1.183-1.237-1.752-1.003-2.796,0.071c-4.174,4.297-8.416,8.528-12.683,12.735c-1.916,1.889-4.196,2.229-6.418,1.15
			c-2.362-1.145-3.865-3.556-3.749-5.979c0.08-1.639,0.886-2.891,2.011-4.014c5.441-5.433,10.867-10.88,16.295-16.322
			C42.183,68.197,42.518,67.813,43.041,67.254z"/>
		<path d="M47.55,48.329c-13.205-0.045-24.033-10.992-23.956-24.218C23.67,10.739,34.505-0.037,47.84,0
			c13.362,0.036,24.087,10.967,24.02,24.478C71.792,37.677,60.889,48.375,47.55,48.329z M59.551,24.143
			c-0.023-6.567-5.253-11.795-11.807-11.801c-6.609-0.007-11.886,5.316-11.835,11.943c0.049,6.542,5.324,11.733,11.896,11.709
			C54.357,35.971,59.573,30.709,59.551,24.143z"/>
	</g>
</symbol><symbol id="payment" viewBox="0 0 35.3 26.3">
<g>
	<path class="st0" d="M29.1,0H6.2C2.8,0,0,2.8,0,6.2v13.9c0,3.4,2.8,6.2,6.2,6.2h22.9c3.4,0,6.2-2.8,6.2-6.2V6.2
		C35.3,2.7,32.5,0,29.1,0z M6.3,2.5h22.9c2,0,3.5,1.5,3.6,3.5H2.7C2.7,4,4.3,2.5,6.3,2.5z M32.8,20c0,2-1.6,3.7-3.7,3.7H6.2
		c-2,0-3.7-1.6-3.7-3.7v-7.1h30.2L32.8,20L32.8,20z M32.8,10.5H2.6v-2h30.2V10.5z"/>
	<path class="st0" d="M5.7,18.5h3.5c0.7,0,1.3-0.6,1.3-1.3s-0.6-1.3-1.3-1.3H5.7c-0.7,0-1.3,0.6-1.3,1.3S5,18.5,5.7,18.5z"/>
	<path class="st0" d="M12.7,18.5H17c0.7,0,1.3-0.6,1.3-1.3s-0.6-1.3-1.3-1.3h-4.3c-0.7,0-1.3,0.6-1.3,1.3S12,18.5,12.7,18.5z"/>
	<circle class="st0" cx="28.4" cy="17.2" r="1.9"/>
</g>
</symbol><symbol id="phone" viewBox="0 0 12 20">
  <path d="M305.452,836h-8.9a1.5,1.5,0,0,0-1.54,1.457v17.09a1.5,1.5,0,0,0,1.54,1.455h8.9a1.5,1.5,0,0,0,1.539-1.455v-17.09A1.5,1.5,0,0,0,305.452,836Zm-6.649.884h4.4a0.408,0.408,0,0,1,0,.7h-4.4A0.408,0.408,0,0,1,298.8,836.883Zm2.2,17.68a0.93,0.93,0,1,1,.981-0.93A0.959,0.959,0,0,1,301,854.563Zm4.836-3.184h-9.674V838.457h9.674v12.922Z" transform="translate(-295 -836)"/>
</symbol><symbol id="refund" viewBox="0 0 28.7 30">
<g>
	<g>
		<path class="st0" d="M1.3,11.8c-0.1,0-0.3,0-0.4-0.1c-0.7-0.2-1-0.9-0.8-1.6C2.2,4,7.9,0,14.3,0c4.3,0,8.5,1.9,11.3,5.2
			C26.1,5.7,26,6.5,25.5,7s-1.3,0.4-1.8-0.1c-2.4-2.7-5.8-4.3-9.4-4.3C9,2.6,4.2,6,2.5,11.1C2.3,11.5,1.8,11.8,1.3,11.8z"/>
	</g>
	<g>
		<polygon class="st0" points="20.5,5.7 24,5.2 26,2.3 27.3,10.6 		"/>
	</g>
</g>
<g>
	<g>
		<path class="st0" d="M14.3,30c-4.7,0-9-2.1-11.9-5.9c-0.4-0.5-0.3-1.3,0.2-1.8c0.5-0.4,1.3-0.3,1.8,0.2c2.4,3.1,6,4.9,9.9,4.9
			c5.5,0,10.3-3.5,12-8.8c0.2-0.7,0.9-1,1.6-0.8s1,0.9,0.8,1.6C26.7,25.8,20.9,30,14.3,30z"/>
	</g>
	<g>
		<polygon class="st0" points="7.6,23.9 4.1,24.3 1.9,27 1.1,18.7 		"/>
	</g>
</g>
</symbol><symbol id="russia" viewBox="0 0 512.001 512.001">
<path style="fill:#F5F5F5;" d="M512,200.093H0V97.104c0-4.875,3.953-8.828,8.828-8.828h494.345c4.875,0,8.828,3.953,8.828,8.828
	L512,200.093L512,200.093z"/>
<path style="fill:#FF4B55;" d="M503.172,423.725H8.828c-4.875,0-8.828-3.953-8.828-8.828V311.909h512v102.988
	C512,419.773,508.047,423.725,503.172,423.725z"/>
<rect y="200.091" style="fill:#41479B;" width="512" height="111.81"/>
</symbol><symbol id="skype" viewBox="0 0 19 19">
  <path d="M309.207,1037.88a8.965,8.965,0,0,0,.108-1.38,8.818,8.818,0,0,0-8.815-8.82,8.912,8.912,0,0,0-1.376.11,5.327,5.327,0,0,0-7.331,7.33,9.091,9.091,0,0,0-.108,1.38,8.81,8.81,0,0,0,8.814,8.81,8.916,8.916,0,0,0,1.376-.1A5.327,5.327,0,0,0,309.207,1037.88Zm-4.522,2.63a3.7,3.7,0,0,1-1.637,1.26,6.565,6.565,0,0,1-2.544.45,6.136,6.136,0,0,1-2.911-.62,3.863,3.863,0,0,1-1.326-1.19,2.615,2.615,0,0,1-.513-1.46,0.966,0.966,0,0,1,.315-0.72,1.116,1.116,0,0,1,.8-0.3,1.026,1.026,0,0,1,.669.23,1.8,1.8,0,0,1,.459.68,4.206,4.206,0,0,0,.483.87,1.917,1.917,0,0,0,.726.57,2.845,2.845,0,0,0,1.235.23,2.957,2.957,0,0,0,1.709-.46,1.311,1.311,0,0,0,.648-1.12,1.109,1.109,0,0,0-.346-0.85,2.255,2.255,0,0,0-.914-0.52c-0.377-.12-0.884-0.24-1.519-0.38a11.351,11.351,0,0,1-2.144-.65,3.5,3.5,0,0,1-1.381-1.02,2.559,2.559,0,0,1-.512-1.62,2.62,2.62,0,0,1,.54-1.63,3.406,3.406,0,0,1,1.562-1.1,6.894,6.894,0,0,1,2.389-.38,6.3,6.3,0,0,1,1.9.25,4.189,4.189,0,0,1,1.334.68,2.853,2.853,0,0,1,.778.88,1.951,1.951,0,0,1,.248.91,1.066,1.066,0,0,1-.315.75,1.079,1.079,0,0,1-.785.33,0.933,0.933,0,0,1-.652-0.21,2.553,2.553,0,0,1-.473-0.63,2.861,2.861,0,0,0-.765-0.96,2.392,2.392,0,0,0-1.43-.34,2.68,2.68,0,0,0-1.476.37,1.052,1.052,0,0,0-.552.88,0.83,0.83,0,0,0,.185.54,1.453,1.453,0,0,0,.521.4,3.092,3.092,0,0,0,.678.27c0.231,0.07.614,0.16,1.146,0.29a16.717,16.717,0,0,1,1.817.48,5.6,5.6,0,0,1,1.39.64,2.676,2.676,0,0,1,.9.96,2.883,2.883,0,0,1,.324,1.42A3.1,3.1,0,0,1,304.685,1040.51Z" transform="translate(-291 -1027)"/>
</symbol><symbol id="star" viewBox="0 0 512.001 512.001">
	<g>
		<path d="M510.992,196.91c-2.428-7.487-8.894-12.947-16.683-14.086l-151.857-22.196L274.547,23.059
			c-3.484-7.059-10.674-11.528-18.546-11.528c-7.872,0-15.061,4.469-18.546,11.528L169.55,160.628L17.692,182.824
			c-7.788,1.139-14.255,6.599-16.683,14.086c-2.428,7.487-0.395,15.703,5.243,21.195l109.867,107.009L90.19,476.291
			c-1.331,7.761,1.86,15.603,8.229,20.23c6.369,4.626,14.813,5.236,21.782,1.572L256,426.677l135.799,71.415
			c3.027,1.592,6.331,2.377,9.625,2.377c4.287,0,8.554-1.332,12.157-3.949c6.37-4.627,9.56-12.47,8.229-20.23l-25.928-151.177
			l109.867-107.009C511.387,212.613,513.42,204.398,510.992,196.91z M359.229,303.073c-4.878,4.751-7.105,11.6-5.954,18.313
			l20.682,120.588l-108.331-56.97c-3.014-1.585-6.32-2.377-9.627-2.377c-3.306,0-6.614,0.792-9.627,2.376l-108.33,56.97
			l20.682-120.588c1.151-6.712-1.075-13.561-5.954-18.313l-87.656-85.376l121.163-17.709c6.729-0.984,12.544-5.213,15.554-11.311
			L256,78.94l54.166,109.736c3.01,6.099,8.826,10.327,15.555,11.311l121.164,17.71L359.229,303.073z"/>
	</g>
</symbol><symbol id="ukraine" viewBox="0 0 512.001 512.001">
<path style="fill:#FFE15A;" d="M0,256h512v158.897c0,4.875-3.953,8.828-8.828,8.828H8.828c-4.875,0-8.828-3.953-8.828-8.828V256z"/>
<path style="fill:#4173CD;" d="M512,256H0V97.103c0-4.875,3.953-8.828,8.828-8.828h494.345c4.875,0,8.828,3.953,8.828,8.828L512,256
	L512,256z"/>
</symbol><symbol id="user" viewBox="0 0 612 612">
	<g>
		<path d="M306.001,325.988c90.563-0.005,123.147-90.682,131.679-165.167C448.188,69.06,404.799,0,306.001,0
			c-98.782,0-142.195,69.055-131.679,160.82C182.862,235.304,215.436,325.995,306.001,325.988z"/>
		<path d="M550.981,541.908c-0.99-28.904-4.377-57.939-9.421-86.393c-6.111-34.469-13.889-85.002-43.983-107.465
			c-17.404-12.988-39.941-17.249-59.865-25.081c-9.697-3.81-18.384-7.594-26.537-11.901c-27.518,30.176-63.4,45.962-105.186,45.964
			c-41.774,0-77.652-15.786-105.167-45.964c-8.153,4.308-16.84,8.093-26.537,11.901c-19.924,7.832-42.461,12.092-59.863,25.081
			c-30.096,22.463-37.873,72.996-43.983,107.465c-5.045,28.454-8.433,57.489-9.422,86.393
			c-0.766,22.387,10.288,25.525,29.017,32.284c23.453,8.458,47.666,14.737,72.041,19.884c47.077,9.941,95.603,17.582,143.921,17.924
			c48.318-0.343,96.844-7.983,143.921-17.924c24.375-5.145,48.59-11.424,72.041-19.884
			C540.694,567.435,551.747,564.297,550.981,541.908z"/>
	</g>
</symbol><symbol id="vk" viewBox="0 0 17 10">
	<path d="M14.270,6.220 C14.801,6.736 15.361,7.221 15.837,7.788 C16.047,8.039 16.247,8.300 16.399,8.591 C16.615,9.007 16.419,9.465 16.044,9.489 L13.713,9.488 C13.112,9.538 12.632,9.297 12.229,8.888 C11.907,8.562 11.608,8.214 11.297,7.877 C11.170,7.739 11.037,7.609 10.878,7.507 C10.560,7.301 10.283,7.363 10.102,7.693 C9.916,8.029 9.874,8.400 9.856,8.774 C9.831,9.320 9.665,9.464 9.114,9.488 C7.936,9.543 6.817,9.366 5.779,8.775 C4.863,8.254 4.152,7.520 3.534,6.687 C2.331,5.066 1.409,3.285 0.581,1.454 C0.394,1.041 0.530,0.819 0.988,0.811 C1.749,0.797 2.509,0.798 3.270,0.810 C3.579,0.815 3.784,0.991 3.903,1.282 C4.315,2.287 4.818,3.244 5.450,4.131 C5.618,4.367 5.790,4.602 6.034,4.769 C6.305,4.953 6.511,4.893 6.638,4.592 C6.718,4.403 6.754,4.199 6.772,3.995 C6.832,3.296 6.840,2.597 6.734,1.901 C6.669,1.465 6.423,1.185 5.986,1.103 C5.764,1.061 5.797,0.978 5.905,0.850 C6.092,0.634 6.268,0.498 6.620,0.498 L9.254,0.498 C9.669,0.580 9.761,0.764 9.818,1.179 L9.820,4.088 C9.815,4.247 9.900,4.724 10.192,4.831 C10.424,4.906 10.578,4.722 10.718,4.575 C11.348,3.910 11.798,3.123 12.201,2.308 C12.379,1.950 12.533,1.578 12.681,1.207 C12.791,0.932 12.964,0.796 13.277,0.802 L15.812,0.804 C15.887,0.804 15.963,0.805 16.036,0.818 C16.464,0.890 16.581,1.072 16.449,1.487 C16.241,2.138 15.836,2.680 15.441,3.224 C15.018,3.807 14.566,4.369 14.146,4.953 C13.761,5.486 13.792,5.756 14.270,6.220 L14.270,6.220 Z"/>
</symbol><symbol id="warranty" viewBox="0 0 26.2 32.4">

<g>
	<path class="st0" d="M24.9,32.4H1.3c-0.7,0-1.3-0.6-1.3-1.3V1.3C0,0.6,0.6,0,1.3,0h23.6c0.7,0,1.3,0.6,1.3,1.3v29.8
		C26.2,31.8,25.6,32.4,24.9,32.4z M2.5,29.9h21.1V2.6H2.5V29.9z"/>
</g>
<g>
	<path class="st0" d="M19.8,10H6.3C5.6,10,5,9.4,5,8.7s0.6-1.3,1.3-1.3h13.5c0.7,0,1.3,0.6,1.3,1.3S20.5,10,19.8,10z"/>
</g>
<g>
	<path class="st0" d="M19.8,15H6.3C5.6,15,5,14.4,5,13.7s0.6-1.3,1.3-1.3h13.5c0.7,0,1.3,0.6,1.3,1.3S20.5,15,19.8,15z"/>
</g>
<g>
	<path class="st0" d="M19.8,20H6.3C5.6,20,5,19.4,5,18.7s0.6-1.3,1.3-1.3h13.5c0.7,0,1.3,0.6,1.3,1.3S20.5,20,19.8,20z"/>
</g>
<g>
	<path class="st0" d="M14.8,25H6.3C5.6,25,5,24.4,5,23.7s0.6-1.3,1.3-1.3h8.5c0.7,0,1.3,0.6,1.3,1.3S15.5,25,14.8,25z"/>
</g>
</symbol><symbol id="wezom" viewBox="0 0 42 15">
	<path d="M41.180,4.841 L32.228,13.974 C32.178,14.035 32.137,14.101 32.081,14.158 C31.533,14.718 30.812,14.994 30.093,14.989 C29.374,14.994 28.654,14.718 28.105,14.158 C28.049,14.101 28.008,14.035 27.958,13.974 L20.994,6.870 L14.030,13.975 C13.980,14.035 13.939,14.101 13.883,14.158 C13.335,14.718 12.614,14.994 11.895,14.989 C11.176,14.994 10.456,14.718 9.907,14.158 C9.851,14.101 9.810,14.035 9.760,13.974 L0.808,4.841 C-0.281,3.730 -0.281,1.929 0.808,0.819 C1.897,-0.293 3.663,-0.293 4.751,0.819 L11.895,8.106 L18.858,1.004 C18.908,0.943 18.949,0.876 19.006,0.819 C19.555,0.259 20.275,-0.017 20.994,-0.013 C21.713,-0.017 22.434,0.259 22.982,0.819 C23.039,0.876 23.080,0.943 23.130,1.004 L30.093,8.106 L37.237,0.819 C38.326,-0.293 40.091,-0.293 41.180,0.819 C42.269,1.929 42.269,3.730 41.180,4.841 Z"/>
</symbol><symbol id="youtube" viewBox="0 0 17 12">
	<path d="M15.876,1.441 C15.299,0.771 14.232,0.498 12.196,0.498 L4.804,0.498 C2.721,0.498 1.636,0.790 1.061,1.503 C0.500,2.199 0.500,3.225 0.500,4.645 L0.500,7.350 C0.500,10.101 1.165,11.498 4.804,11.498 L12.196,11.498 C13.962,11.498 14.940,11.256 15.574,10.664 C16.223,10.057 16.500,9.066 16.500,7.350 L16.500,4.645 C16.500,3.147 16.456,2.117 15.876,1.441 ZM10.772,6.372 L7.415,8.086 C7.340,8.124 7.258,8.142 7.176,8.142 C7.083,8.142 6.991,8.117 6.909,8.070 C6.754,7.978 6.660,7.814 6.660,7.638 L6.660,4.222 C6.660,4.044 6.754,3.882 6.908,3.791 C7.062,3.699 7.254,3.693 7.414,3.775 L10.771,5.477 C10.941,5.565 11.049,5.736 11.049,5.923 C11.049,6.111 10.942,6.284 10.772,6.372 Z"/>
</symbol></svg>