<svg version="1.1" id="Слой_1" xmlns="http://www.w3.org/2000/svg" xmlns:xlink="http://www.w3.org/1999/xlink" x="0px" y="0px"
	 viewBox="0 0 31.5 36" style="enable-background:new 0 0 31.5 36;" xml:space="preserve">
<path class="st0" d="M31.5,9.5c0,0,0-0.1,0-0.1c0-0.1-0.1-0.3-0.1-0.4c0,0,0,0,0,0c0,0,0,0,0,0c-0.1-0.1-0.2-0.2-0.3-0.3
	c0,0-0.1,0-0.1-0.1c0,0-0.1,0-0.1-0.1l-7.2-4.2c-0.2-0.2-0.3-0.3-0.6-0.3l-6.7-3.9c-0.4-0.2-0.9-0.2-1.3,0L0.6,8.5
	c0,0-0.1,0-0.1,0.1c0,0-0.1,0-0.1,0.1C0.2,8.9,0.1,9.1,0,9.4c0,0,0,0.1,0,0.1c0,0,0,0.1,0,0.1v16.7c0,0.4,0.2,0.9,0.6,1.1l14.5,8.4
	c0,0,0.1,0,0.1,0c0,0,0.1,0,0.1,0c0.1,0.1,0.3,0.1,0.4,0.1s0.3,0,0.4-0.1c0,0,0.1,0,0.1,0c0,0,0.1,0,0.1,0l14.5-8.4
	c0.4-0.2,0.6-0.6,0.6-1.1L31.5,9.5C31.5,9.6,31.5,9.6,31.5,9.5z M15.8,16.6l-5-2.9l12-6.9l5,2.9L15.8,16.6z M15.8,2.7l4.5,2.6
	l-12,6.9L3.7,9.6L15.8,2.7z M2.5,11.8l4.6,2.6v13.9l-4.6-2.6V11.8z M17,32.6v-8.2c0-0.7-0.6-1.3-1.3-1.3s-1.3,0.6-1.3,1.3v8.2
	l-4.9-2.8V15.9l4.9,2.8v1.8c0,0.7,0.6,1.3,1.3,1.3s1.3-0.6,1.3-1.3v-1.8l12-6.9v13.9L17,32.6z"/>
</svg>
