<svg viewBox="0 0 10 17">
	<path d="M9.161,0.501 L7.002,0.498 C4.577,0.498 3.010,2.043 3.010,4.435 L3.010,6.251 L0.839,6.251 C0.652,6.251 0.500,6.397 0.500,6.577 L0.500,9.208 C0.500,9.388 0.652,9.534 0.839,9.534 L3.010,9.534 L3.010,16.171 C3.010,16.352 3.161,16.498 3.349,16.498 L6.181,16.498 C6.368,16.498 6.520,16.352 6.520,16.171 L6.520,9.534 L9.058,9.534 C9.245,9.534 9.397,9.388 9.397,9.208 L9.398,6.577 C9.398,6.490 9.362,6.408 9.299,6.346 C9.235,6.284 9.149,6.251 9.059,6.251 L6.520,6.251 L6.520,4.711 C6.520,3.973 6.704,3.597 7.706,3.597 L9.160,3.596 C9.348,3.596 9.500,3.450 9.500,3.270 L9.500,0.827 C9.500,0.648 9.348,0.501 9.161,0.501 Z"/>
</svg>