<svg viewBox="0 0 16 16">
	<path d="M14.400,-0.000 L1.600,-0.000 C0.720,-0.000 -0.000,0.720 -0.000,1.600 L-0.000,14.400 C-0.000,15.280 0.720,16.000 1.600,16.000 L14.400,16.000 C15.280,16.000 16.000,15.280 16.000,14.400 L16.000,1.600 C16.000,0.720 15.280,-0.000 14.400,-0.000 ZM8.000,4.800 C9.760,4.800 11.200,6.240 11.200,8.000 C11.200,9.760 9.760,11.200 8.000,11.200 C6.240,11.200 4.800,9.760 4.800,8.000 C4.800,6.240 6.240,4.800 8.000,4.800 ZM2.000,14.400 C1.760,14.400 1.600,14.240 1.600,14.000 L1.600,7.200 L3.280,7.200 C3.200,7.440 3.200,7.760 3.200,8.000 C3.200,10.639 5.360,12.800 8.000,12.800 C10.640,12.800 12.800,10.639 12.800,8.000 C12.800,7.760 12.800,7.440 12.720,7.200 L14.400,7.200 L14.400,14.000 C14.400,14.240 14.240,14.400 14.000,14.400 L2.000,14.400 ZM14.400,3.600 C14.400,3.840 14.240,4.000 14.000,4.000 L12.400,4.000 C12.160,4.000 12.000,3.840 12.000,3.600 L12.000,2.000 C12.000,1.760 12.160,1.600 12.400,1.600 L14.000,1.600 C14.240,1.600 14.400,1.760 14.400,2.000 L14.400,3.600 Z"/>
	<path d="M14.400,-0.000 L1.600,-0.000 C0.720,-0.000 -0.000,0.720 -0.000,1.600 L-0.000,14.400 C-0.000,15.280 0.720,16.000 1.600,16.000 L14.400,16.000 C15.280,16.000 16.000,15.280 16.000,14.400 L16.000,1.600 C16.000,0.720 15.280,-0.000 14.400,-0.000 ZM8.000,4.800 C9.760,4.800 11.200,6.240 11.200,8.000 C11.200,9.760 9.760,11.200 8.000,11.200 C6.240,11.200 4.800,9.760 4.800,8.000 C4.800,6.240 6.240,4.800 8.000,4.800 ZM2.000,14.400 C1.760,14.400 1.600,14.240 1.600,14.000 L1.600,7.200 L3.280,7.200 C3.200,7.440 3.200,7.760 3.200,8.000 C3.200,10.639 5.360,12.800 8.000,12.800 C10.640,12.800 12.800,10.639 12.800,8.000 C12.800,7.760 12.800,7.440 12.720,7.200 L14.400,7.200 L14.400,14.000 C14.400,14.240 14.240,14.400 14.000,14.400 L2.000,14.400 ZM14.400,3.600 C14.400,3.840 14.240,4.000 14.000,4.000 L12.400,4.000 C12.160,4.000 12.000,3.840 12.000,3.600 L12.000,2.000 C12.000,1.760 12.160,1.600 12.400,1.600 L14.000,1.600 C14.240,1.600 14.400,1.760 14.400,2.000 L14.400,3.600 Z"/>
</svg>