<svg xmlns="http://www.w3.org/2000/svg" width="17" height="13" viewBox="0 0 17 13">
  <path d="M294.632,976.007q0.322,0.221,1.944,1.315t2.486,1.686l0.4,0.281c0.206,0.145.376,0.262,0.512,0.351s0.3,0.19.494,0.3a2.963,2.963,0,0,0,.545.249,1.558,1.558,0,0,0,.474.083h0.019a1.559,1.559,0,0,0,.475-0.083,2.963,2.963,0,0,0,.545-0.249q0.289-.167.494-0.3c0.136-.089.306-0.206,0.512-0.351s0.34-.238.4-0.281l4.44-3a4.451,4.451,0,0,0,1.157-1.136,2.4,2.4,0,0,0,.465-1.394,1.4,1.4,0,0,0-.451-1.044,1.487,1.487,0,0,0-1.067-.434H294.518a1.368,1.368,0,0,0-1.124.481,1.827,1.827,0,0,0-.394,1.2,2.126,2.126,0,0,0,.522,1.261A4.679,4.679,0,0,0,294.632,976.007ZM309.051,977q-3.111,2.049-4.724,3.186-0.54.387-.878,0.6a5.525,5.525,0,0,1-.9.443,2.792,2.792,0,0,1-1.043.226h-0.02a2.792,2.792,0,0,1-1.043-.226,5.583,5.583,0,0,1-.9-0.443q-0.336-.217-0.877-0.6-1.281-.915-4.715-3.186a4.994,4.994,0,0,1-.958-0.8v7.333a1.4,1.4,0,0,0,.446,1.043,1.478,1.478,0,0,0,1.072.434h13.964a1.479,1.479,0,0,0,1.072-.434,1.4,1.4,0,0,0,.446-1.043v-7.333A5.2,5.2,0,0,1,309.051,977Z" transform="translate(-293 -972)"/>
</svg>
