
<svg version="1.1" id="Layer_11" xmlns="http://www.w3.org/2000/svg" xmlns:xlink="http://www.w3.org/1999/xlink" x="0px" y="0px"
	 viewBox="0 0 35.3 26.3" style="enable-background:new 0 0 35.3 26.3;" xml:space="preserve">
<g>
	<path class="st0" d="M29.1,0H6.2C2.8,0,0,2.8,0,6.2v13.9c0,3.4,2.8,6.2,6.2,6.2h22.9c3.4,0,6.2-2.8,6.2-6.2V6.2
		C35.3,2.7,32.5,0,29.1,0z M6.3,2.5h22.9c2,0,3.5,1.5,3.6,3.5H2.7C2.7,4,4.3,2.5,6.3,2.5z M32.8,20c0,2-1.6,3.7-3.7,3.7H6.2
		c-2,0-3.7-1.6-3.7-3.7v-7.1h30.2L32.8,20L32.8,20z M32.8,10.5H2.6v-2h30.2V10.5z"/>
	<path class="st0" d="M5.7,18.5h3.5c0.7,0,1.3-0.6,1.3-1.3s-0.6-1.3-1.3-1.3H5.7c-0.7,0-1.3,0.6-1.3,1.3S5,18.5,5.7,18.5z"/>
	<path class="st0" d="M12.7,18.5H17c0.7,0,1.3-0.6,1.3-1.3s-0.6-1.3-1.3-1.3h-4.3c-0.7,0-1.3,0.6-1.3,1.3S12,18.5,12.7,18.5z"/>
	<circle class="st0" cx="28.4" cy="17.2" r="1.9"/>
</g>
</svg>
