
<svg version="1.1" id="Layer_11" xmlns="http://www.w3.org/2000/svg" xmlns:xlink="http://www.w3.org/1999/xlink" x="0px" y="0px"
	 viewBox="0 0 28.7 30" style="enable-background:new 0 0 28.7 30;" xml:space="preserve">
<g>
	<g>
		<path class="st0" d="M1.3,11.8c-0.1,0-0.3,0-0.4-0.1c-0.7-0.2-1-0.9-0.8-1.6C2.2,4,7.9,0,14.3,0c4.3,0,8.5,1.9,11.3,5.2
			C26.1,5.7,26,6.5,25.5,7s-1.3,0.4-1.8-0.1c-2.4-2.7-5.8-4.3-9.4-4.3C9,2.6,4.2,6,2.5,11.1C2.3,11.5,1.8,11.8,1.3,11.8z"/>
	</g>
	<g>
		<polygon class="st0" points="20.5,5.7 24,5.2 26,2.3 27.3,10.6 		"/>
	</g>
</g>
<g>
	<g>
		<path class="st0" d="M14.3,30c-4.7,0-9-2.1-11.9-5.9c-0.4-0.5-0.3-1.3,0.2-1.8c0.5-0.4,1.3-0.3,1.8,0.2c2.4,3.1,6,4.9,9.9,4.9
			c5.5,0,10.3-3.5,12-8.8c0.2-0.7,0.9-1,1.6-0.8s1,0.9,0.8,1.6C26.7,25.8,20.9,30,14.3,30z"/>
	</g>
	<g>
		<polygon class="st0" points="7.6,23.9 4.1,24.3 1.9,27 1.1,18.7 		"/>
	</g>
</g>
</svg>
