<svg xmlns="http://www.w3.org/2000/svg" width="19" height="19" viewBox="0 0 19 19">
  <path d="M309.207,1037.88a8.965,8.965,0,0,0,.108-1.38,8.818,8.818,0,0,0-8.815-8.82,8.912,8.912,0,0,0-1.376.11,5.327,5.327,0,0,0-7.331,7.33,9.091,9.091,0,0,0-.108,1.38,8.81,8.81,0,0,0,8.814,8.81,8.916,8.916,0,0,0,1.376-.1A5.327,5.327,0,0,0,309.207,1037.88Zm-4.522,2.63a3.7,3.7,0,0,1-1.637,1.26,6.565,6.565,0,0,1-2.544.45,6.136,6.136,0,0,1-2.911-.62,3.863,3.863,0,0,1-1.326-1.19,2.615,2.615,0,0,1-.513-1.46,0.966,0.966,0,0,1,.315-0.72,1.116,1.116,0,0,1,.8-0.3,1.026,1.026,0,0,1,.669.23,1.8,1.8,0,0,1,.459.68,4.206,4.206,0,0,0,.483.87,1.917,1.917,0,0,0,.726.57,2.845,2.845,0,0,0,1.235.23,2.957,2.957,0,0,0,1.709-.46,1.311,1.311,0,0,0,.648-1.12,1.109,1.109,0,0,0-.346-0.85,2.255,2.255,0,0,0-.914-0.52c-0.377-.12-0.884-0.24-1.519-0.38a11.351,11.351,0,0,1-2.144-.65,3.5,3.5,0,0,1-1.381-1.02,2.559,2.559,0,0,1-.512-1.62,2.62,2.62,0,0,1,.54-1.63,3.406,3.406,0,0,1,1.562-1.1,6.894,6.894,0,0,1,2.389-.38,6.3,6.3,0,0,1,1.9.25,4.189,4.189,0,0,1,1.334.68,2.853,2.853,0,0,1,.778.88,1.951,1.951,0,0,1,.248.91,1.066,1.066,0,0,1-.315.75,1.079,1.079,0,0,1-.785.33,0.933,0.933,0,0,1-.652-0.21,2.553,2.553,0,0,1-.473-0.63,2.861,2.861,0,0,0-.765-0.96,2.392,2.392,0,0,0-1.43-.34,2.68,2.68,0,0,0-1.476.37,1.052,1.052,0,0,0-.552.88,0.83,0.83,0,0,0,.185.54,1.453,1.453,0,0,0,.521.4,3.092,3.092,0,0,0,.678.27c0.231,0.07.614,0.16,1.146,0.29a16.717,16.717,0,0,1,1.817.48,5.6,5.6,0,0,1,1.39.64,2.676,2.676,0,0,1,.9.96,2.883,2.883,0,0,1,.324,1.42A3.1,3.1,0,0,1,304.685,1040.51Z" transform="translate(-291 -1027)"/>
</svg>
