<svg viewBox="0 0 17 10">
	<path d="M14.270,6.220 C14.801,6.736 15.361,7.221 15.837,7.788 C16.047,8.039 16.247,8.300 16.399,8.591 C16.615,9.007 16.419,9.465 16.044,9.489 L13.713,9.488 C13.112,9.538 12.632,9.297 12.229,8.888 C11.907,8.562 11.608,8.214 11.297,7.877 C11.170,7.739 11.037,7.609 10.878,7.507 C10.560,7.301 10.283,7.363 10.102,7.693 C9.916,8.029 9.874,8.400 9.856,8.774 C9.831,9.320 9.665,9.464 9.114,9.488 C7.936,9.543 6.817,9.366 5.779,8.775 C4.863,8.254 4.152,7.520 3.534,6.687 C2.331,5.066 1.409,3.285 0.581,1.454 C0.394,1.041 0.530,0.819 0.988,0.811 C1.749,0.797 2.509,0.798 3.270,0.810 C3.579,0.815 3.784,0.991 3.903,1.282 C4.315,2.287 4.818,3.244 5.450,4.131 C5.618,4.367 5.790,4.602 6.034,4.769 C6.305,4.953 6.511,4.893 6.638,4.592 C6.718,4.403 6.754,4.199 6.772,3.995 C6.832,3.296 6.840,2.597 6.734,1.901 C6.669,1.465 6.423,1.185 5.986,1.103 C5.764,1.061 5.797,0.978 5.905,0.850 C6.092,0.634 6.268,0.498 6.620,0.498 L9.254,0.498 C9.669,0.580 9.761,0.764 9.818,1.179 L9.820,4.088 C9.815,4.247 9.900,4.724 10.192,4.831 C10.424,4.906 10.578,4.722 10.718,4.575 C11.348,3.910 11.798,3.123 12.201,2.308 C12.379,1.950 12.533,1.578 12.681,1.207 C12.791,0.932 12.964,0.796 13.277,0.802 L15.812,0.804 C15.887,0.804 15.963,0.805 16.036,0.818 C16.464,0.890 16.581,1.072 16.449,1.487 C16.241,2.138 15.836,2.680 15.441,3.224 C15.018,3.807 14.566,4.369 14.146,4.953 C13.761,5.486 13.792,5.756 14.270,6.220 L14.270,6.220 Z"/>
</svg>