<svg version="1.1" id="Layer_11" xmlns="http://www.w3.org/2000/svg" xmlns:xlink="http://www.w3.org/1999/xlink" x="0px" y="0px"
	 viewBox="0 0 26.2 32.4" style="enable-background:new 0 0 26.2 32.4;" xml:space="preserve">

<g>
	<path class="st0" d="M24.9,32.4H1.3c-0.7,0-1.3-0.6-1.3-1.3V1.3C0,0.6,0.6,0,1.3,0h23.6c0.7,0,1.3,0.6,1.3,1.3v29.8
		C26.2,31.8,25.6,32.4,24.9,32.4z M2.5,29.9h21.1V2.6H2.5V29.9z"/>
</g>
<g>
	<path class="st0" d="M19.8,10H6.3C5.6,10,5,9.4,5,8.7s0.6-1.3,1.3-1.3h13.5c0.7,0,1.3,0.6,1.3,1.3S20.5,10,19.8,10z"/>
</g>
<g>
	<path class="st0" d="M19.8,15H6.3C5.6,15,5,14.4,5,13.7s0.6-1.3,1.3-1.3h13.5c0.7,0,1.3,0.6,1.3,1.3S20.5,15,19.8,15z"/>
</g>
<g>
	<path class="st0" d="M19.8,20H6.3C5.6,20,5,19.4,5,18.7s0.6-1.3,1.3-1.3h13.5c0.7,0,1.3,0.6,1.3,1.3S20.5,20,19.8,20z"/>
</g>
<g>
	<path class="st0" d="M14.8,25H6.3C5.6,25,5,24.4,5,23.7s0.6-1.3,1.3-1.3h8.5c0.7,0,1.3,0.6,1.3,1.3S15.5,25,14.8,25z"/>
</g>
</svg>
