<svg viewBox="0 0 17 12">
	<path d="M15.876,1.441 C15.299,0.771 14.232,0.498 12.196,0.498 L4.804,0.498 C2.721,0.498 1.636,0.790 1.061,1.503 C0.500,2.199 0.500,3.225 0.500,4.645 L0.500,7.350 C0.500,10.101 1.165,11.498 4.804,11.498 L12.196,11.498 C13.962,11.498 14.940,11.256 15.574,10.664 C16.223,10.057 16.500,9.066 16.500,7.350 L16.500,4.645 C16.500,3.147 16.456,2.117 15.876,1.441 ZM10.772,6.372 L7.415,8.086 C7.340,8.124 7.258,8.142 7.176,8.142 C7.083,8.142 6.991,8.117 6.909,8.070 C6.754,7.978 6.660,7.814 6.660,7.638 L6.660,4.222 C6.660,4.044 6.754,3.882 6.908,3.791 C7.062,3.699 7.254,3.693 7.414,3.775 L10.771,5.477 C10.941,5.565 11.049,5.736 11.049,5.923 C11.049,6.111 10.942,6.284 10.772,6.372 Z"/>
</svg>