<?xml version="1.0" standalone="no"?>
<!DOCTYPE svg PUBLIC "-//W3C//DTD SVG 20010904//EN"
 "http://www.w3.org/TR/2001/REC-SVG-20010904/DTD/svg10.dtd">
<svg version="1.0" xmlns="http://www.w3.org/2000/svg"
 width="280.000000pt" height="280.000000pt" viewBox="0 0 280.000000 280.000000"
 preserveAspectRatio="xMidYMid meet">
<metadata>
Created by potrace 1.11, written by Peter Selinger 2001-2013
</metadata>
<g transform="translate(0.000000,280.000000) scale(0.100000,-0.100000)"
fill="#000000" stroke="none">
<path d="M106 2790 c-38 -12 -75 -47 -92 -87 -12 -27 -14 -250 -14 -1310 0
-1426 -5 -1321 69 -1370 l34 -23 1296 0 c1276 0 1297 0 1329 20 18 11 41 34
52 52 20 32 20 53 20 1324 l0 1291 -22 33 c-13 18 -36 43 -51 54 l-28 21
-1282 2 c-705 1 -1295 -2 -1311 -7z m1022 -962 l-3 -93 -192 -3 -193 -2 0
-365 0 -365 -110 0 -110 0 0 365 0 365 -187 2 -188 3 -3 93 -3 92 496 0 496 0
-3 -92z m352 -368 l0 -460 -110 0 -110 0 0 460 0 460 110 0 110 0 0 -460z
m1038 431 c101 -45 152 -142 152 -285 0 -97 -17 -143 -72 -200 -26 -27 -47
-50 -45 -50 1 -1 25 -12 52 -26 74 -37 86 -67 83 -210 l-3 -115 -106 -3 -106
-3 -5 98 c-8 173 -9 173 -342 173 l-245 0 -3 -132 -3 -133 -112 -3 -113 -3 0
461 0 461 408 -3 c405 -3 407 -3 460 -27z"/>
<path d="M1870 1595 l0 -136 260 3 260 3 26 26 c46 47 45 168 -1 215 l-24 24
-261 0 -260 0 0 -135z"/>
</g>
</svg>
